<svg width="61" height="61" viewBox="0 0 61 61" fill="none" xmlns="http://www.w3.org/2000/svg">
<g clip-path="url(#clip0_1:502)">
<path d="M57.8238 52.1153H56.2536C55.1641 49.5269 55.1637 47.0012 56.2524 44.4258H57.8238C59.5752 44.4258 61 43.001 61 41.2495C61 39.4981 59.5752 38.0732 57.8238 38.0732H51.5049C52.3092 37.1544 52.7981 35.9531 52.7981 34.6388V24.687C52.7981 21.8079 50.4559 19.4656 47.5769 19.4656H45.0074C45.2254 19.0309 45.3489 18.5409 45.3489 18.0224C45.3489 16.2392 43.8999 14.7885 42.1187 14.7885H41.2348C40.446 12.8385 40.4455 10.9339 41.2335 8.99644H42.1187C43.8999 8.99644 45.3489 7.54566 45.3489 5.76249C45.3489 3.98133 43.8999 2.53223 42.1187 2.53223H11.9758C6.81365 2.53223 2.61395 6.73039 2.61395 11.8906C2.61395 14.3861 3.58923 16.7357 5.3599 18.5065C5.71196 18.8585 6.08773 19.1777 6.48208 19.4654H5.79012C4.03875 19.4654 2.61395 20.8902 2.61395 22.6417C2.61395 24.3932 4.03875 25.818 5.79012 25.818H7.36158C8.45029 28.3932 8.44993 30.919 7.36039 33.5075H5.79012C4.03875 33.5075 2.61395 34.9323 2.61395 36.6838C2.61395 37.3538 2.82304 37.9756 3.17855 38.4885C1.31186 39.285 0 41.1393 0 43.2946V53.2466C0 56.1257 2.34064 58.4679 5.21764 58.4679H57.8237C59.5751 58.4679 60.9999 57.0431 60.9999 55.2916C61 53.5403 59.5752 52.1153 57.8238 52.1153ZM57.8238 39.8603C58.5898 39.8603 59.2129 40.4835 59.2129 41.2495C59.2129 42.0154 58.5898 42.6387 57.8238 42.6387H41.6973C41.2037 42.6387 40.8038 43.0387 40.8038 43.5322C40.8038 44.0257 41.2037 44.4258 41.6973 44.4258H54.3355C53.9863 45.4065 53.7728 46.3911 53.6922 47.377C53.6922 47.377 53.3352 49.1456 54.3374 52.1153H6.61111C6.471 52.1153 6.35258 51.9969 6.35258 51.8567V44.6844C6.35258 44.5443 6.471 44.4259 6.61111 44.4259H15.4634L15.464 47.3606C15.4076 48.2391 15.8366 48.5853 16.1001 48.714C16.3671 48.8446 16.9156 48.971 17.5905 48.3541C17.5952 48.3498 17.5998 48.3455 17.6043 48.3412L20.102 45.959L22.5997 48.3412C22.6042 48.3456 22.6088 48.3499 22.6135 48.3541C23.0086 48.7152 23.3603 48.8218 23.638 48.8218C23.8363 48.8218 23.9969 48.7674 24.1085 48.7124C24.3722 48.5826 24.8007 48.2347 24.74 47.3582L24.7412 44.4259H37.2977C37.7913 44.4259 38.1912 44.0258 38.1912 43.5323C38.1912 43.0388 37.7913 42.6388 37.2977 42.6388H24.7418L24.743 39.8604H57.8238V39.8603ZM9.92227 28.7695C9.84173 27.7836 9.62406 26.7991 9.2751 25.8183H46.1872C46.3275 25.8183 46.4459 25.9367 46.4459 26.0768V33.2491C46.4459 33.3892 46.3275 33.5076 46.1872 33.5076H24.7456L24.7468 30.5564H31.0004C31.494 30.5564 31.8939 30.1563 31.8939 29.6628C31.8939 29.1693 31.494 28.7693 31.0004 28.7693H9.92227V28.7695ZM15.4611 33.5077H9.27307C9.6218 32.5255 9.83982 31.5411 9.92132 30.5565H15.4605L15.4611 33.5077ZM22.9597 30.5566L22.9533 46.2088L20.7186 44.0774C20.3734 43.7481 19.8304 43.7481 19.4851 44.0774L17.2507 46.2086L17.2475 30.5565H22.9597V30.5566ZM4.40105 11.8907C4.40105 7.71592 7.79906 4.31946 11.9758 4.31946H42.1187C42.9145 4.31946 43.5617 4.96687 43.5617 5.76261C43.5617 6.56037 42.9143 7.20945 42.1187 7.20945H25.6466C25.1531 7.20945 24.753 7.60952 24.753 8.103C24.753 8.59648 25.1531 8.99656 25.6466 8.99656H39.3295C38.6988 10.9188 38.6996 12.858 39.3319 14.7886H11.9758C11.2073 14.7886 10.4797 14.4858 9.93049 13.9393C9.38078 13.3868 9.07804 12.6593 9.07804 11.8907C9.07804 10.2948 10.378 8.99656 11.9758 8.99656H21.2469C21.7404 8.99656 22.1405 8.59648 22.1405 8.103C22.1405 7.60952 21.7404 7.20945 21.2469 7.20945H11.9758C9.39257 7.20945 7.29093 9.30942 7.29093 11.8907C7.29093 13.1349 7.77845 14.3101 8.66677 15.203C9.55651 16.0882 10.7316 16.5757 11.9758 16.5757H42.1187C42.9145 16.5757 43.5617 17.2248 43.5617 18.0225C43.5617 18.8183 42.9143 19.4657 42.1187 19.4657H11.9758C9.95765 19.4657 8.05688 18.6764 6.62362 17.243C5.19036 15.8097 4.40105 13.909 4.40105 11.8907ZM5.79012 24.0312C5.02416 24.0312 4.40105 23.408 4.40105 22.642C4.40105 21.876 5.02416 21.2528 5.79012 21.2528H47.5769C49.4705 21.2528 51.011 22.7934 51.011 24.6871V34.639C51.011 36.5327 49.4704 38.0733 47.5769 38.0733H24.7437L24.7449 35.2949H46.1871C47.3152 35.2949 48.2329 34.3772 48.2329 33.2493V26.077C48.2329 24.949 47.3152 24.0314 46.1871 24.0314H5.79012V24.0312ZM5.79012 35.2948H15.4615L15.4621 38.0732H5.79023C5.02428 38.0732 4.40117 37.45 4.40117 36.684C4.40105 35.9181 5.02416 35.2948 5.79012 35.2948ZM57.8238 56.6808H5.21764C3.32605 56.6808 1.78711 55.1402 1.78711 53.2466V43.2946C1.78711 41.4009 3.32605 39.8603 5.21764 39.8603H15.4623L15.4629 42.6387H6.61111C5.48309 42.6387 4.56547 43.5564 4.56547 44.6843V51.8566C4.56547 52.9846 5.48321 53.9023 6.61111 53.9023H57.8238C58.5898 53.9023 59.2129 54.5256 59.2129 55.2915C59.2129 56.0575 58.5898 56.6808 57.8238 56.6808Z" fill="#D01C69"/>
</g>
<defs>
<clipPath id="clip0_1:502">
<rect width="61" height="61" fill="white"/>
</clipPath>
</defs>
</svg>
