<svg width="58" height="58" viewBox="0 0 58 58" fill="none" xmlns="http://www.w3.org/2000/svg">
<g clip-path="url(#clip0_1:505)">
<path d="M43.9152 52.5643C43.6014 52.0234 42.9085 51.8393 42.367 52.153L42.3234 52.1782C41.7824 52.4921 41.5983 53.1853 41.9121 53.7264C42.1222 54.0886 42.5023 54.2909 42.8928 54.2909C43.0857 54.2909 43.2814 54.2414 43.4603 54.1376L43.5039 54.1125C44.0449 53.7986 44.229 53.1054 43.9152 52.5643Z" fill="#D01C69"/>
<path d="M54.1141 14.5099C50.2419 7.80312 43.9898 3.00577 36.5094 1.00137C29.0292 -1.00303 21.216 0.0256791 14.5092 3.89775C7.80247 7.76981 3.00501 14.022 1.00073 21.5023C-1.00356 28.9826 0.0250334 36.796 3.8971 43.5027C7.37042 49.5187 12.8908 54.0909 19.4414 56.3766C22.5466 57.4601 25.7881 58.0008 29.0247 58.0008C32.5438 58.0008 36.0565 57.3612 39.3769 56.0851C39.9609 55.8606 40.2522 55.2053 40.0277 54.6213C39.8032 54.0374 39.1477 53.7457 38.564 53.9706C29.7258 57.3675 20.1578 55.8241 13.0094 50.4584L14.0243 45.1608L14.5134 45.002C16.3613 44.4016 17.3763 42.4096 16.7762 40.5616L16.4173 39.4572C16.3342 39.2016 16.3347 38.9314 16.4184 38.6761C16.7332 37.7164 16.6207 36.6664 16.1097 35.795C15.5987 34.9238 14.7372 34.3129 13.7459 34.119L11.1891 33.6195L6.25596 29.8687C5.9604 29.644 5.57355 29.5784 5.22034 29.693L2.33212 30.6312C2.27083 29.5982 2.26993 28.5655 2.32815 27.5383C2.44212 27.6444 2.51631 27.7166 2.56197 27.764C2.61849 27.8581 2.6885 27.9444 2.77052 28.0192C3.00637 28.234 3.22002 28.3314 3.66861 28.3314C4.08084 28.3313 4.69109 28.2491 5.69873 28.1003C6.65437 27.959 7.60502 27.7999 7.61442 27.7983C7.99539 27.7345 8.31745 27.4807 8.46902 27.1256C8.62059 26.7704 8.5806 26.3624 8.36299 26.0432L6.97405 24.006L8.96349 22.5834C9.09603 22.4886 9.20659 22.3663 9.28759 22.225L12.3714 16.8413L13.6145 15.5093C14.8847 14.1479 15.2472 12.1561 14.5378 10.4346C14.1194 9.4193 13.3885 8.574 12.4743 8.0043C13.4644 7.22595 14.52 6.50729 15.642 5.85966C19.7584 3.48302 24.2507 2.33129 28.6957 2.28723L26.673 4.82461L19.1721 7.45421C18.8674 7.56092 18.6228 7.79269 18.4997 8.09108L16.4049 13.1692C16.2562 13.5301 16.3034 13.9417 16.5301 14.2594L19.5896 18.545C19.1514 18.9448 18.7249 19.527 18.2155 20.25C17.9921 20.5671 17.7812 20.8665 17.6354 21.0344C17.5086 21.1805 17.3818 21.3232 17.256 21.4646C16.598 22.2049 15.9176 22.9706 15.4342 23.9933C14.3714 26.2429 14.5861 28.8577 15.9944 30.8172C17.3562 32.7118 19.6012 33.675 21.9973 33.3931C22.3877 33.3474 22.7516 33.2573 23.1038 33.1701C24.075 32.9298 24.3827 32.9058 24.6942 33.1974C24.8457 33.3393 24.8597 33.3662 24.8566 33.8475C24.8545 34.1538 24.8521 34.5349 24.9577 34.97C25.1268 35.6661 25.564 36.1472 25.9151 36.5337C26.0897 36.7257 26.2703 36.9244 26.3259 37.0578C26.6792 37.9044 26.5254 38.3733 26.1882 39.4008C26.1594 39.4887 26.1299 39.5784 26.1003 39.6704C25.5882 41.2557 26.3021 42.8283 26.9319 44.2156C27.1365 44.6661 27.3297 45.0913 27.4562 45.4672C28.4747 48.4894 29.2382 49.1816 29.851 49.4603C30.1719 49.6062 30.504 49.6702 30.8396 49.6701C32.4725 49.6699 34.1765 48.1538 34.9593 47.1926C35.4509 46.589 35.572 45.9847 35.6604 45.5432C35.7044 45.3237 35.7391 45.1504 35.8053 45.0371C35.9065 44.8638 36.0258 44.7294 36.1768 44.5593C36.4805 44.2173 36.8585 43.7918 37.1033 43.0204C37.2894 42.4346 37.4245 42.2909 37.8721 41.8142C37.95 41.7314 38.033 41.6428 38.1222 41.5459C39.631 39.9041 39.2424 38.6499 38.8309 37.3221C38.4846 36.2048 39.0903 35.4902 40.5548 34.1264C41.1896 33.5352 41.846 32.9239 42.3534 32.1894C42.5754 31.8679 43.2509 30.8899 42.8329 29.9206C42.4231 28.9702 41.3818 28.8104 40.5451 28.6822C40.2146 28.6315 39.7153 28.5549 39.5563 28.451C38.8555 27.9928 38.4267 27.0365 38.012 26.1115C37.9294 25.9274 37.8479 25.7457 37.7654 25.5694C37.6181 25.2547 37.4709 24.8739 37.3152 24.4709C36.9031 23.4042 36.436 22.1952 35.6409 21.3523C34.9262 20.5951 33.5789 20.2303 32.3903 19.9084C31.9905 19.8002 31.6132 19.698 31.3643 19.6061C31.1557 19.5291 30.9294 19.5152 30.7135 19.5659C30.135 19.7015 29.774 19.8509 29.506 20.0657C29.4352 20.1225 29.2255 20.3088 29.1027 20.6083C28.688 20.4093 28.1178 20.0292 27.7668 19.7953C27.7596 19.7904 27.7522 19.7856 27.745 19.7807C27.8632 19.3074 27.7562 18.9276 27.644 18.6904C27.0112 17.3518 24.9107 17.4566 24.4963 17.4918C24.2609 17.5115 23.9631 17.5221 23.648 17.5332C23.1532 17.5507 22.6063 17.5705 22.0651 17.6312L22.093 17.5535C22.5038 16.409 23.5967 15.64 24.8127 15.64H25.4567C26.0821 15.64 26.5894 15.1328 26.5894 14.5073C26.5894 13.8819 26.0821 13.3746 25.4567 13.3746H24.8127C23.0074 13.3746 21.3543 14.3247 20.4278 15.8201L18.7382 13.4534L20.4005 9.42406L27.7301 6.85439C27.9311 6.78393 28.1082 6.65818 28.2411 6.49155L31.4994 2.40447C39.8249 3.19642 47.6617 7.86429 52.1524 15.6424C53.3486 17.7142 54.2334 19.8953 54.8217 22.1262L54.3415 22.5544C53.7147 23.1136 53.3474 23.9158 53.3334 24.7553C53.3333 24.7645 53.333 24.7736 53.3327 24.7826L52.5504 22.6312C52.4338 22.3101 52.2621 22.0157 52.0403 21.7562L50.6448 20.1223C50.1037 19.489 49.316 19.1259 48.4832 19.1259H46.7751C46.1687 19.1259 45.6145 19.4581 45.3285 19.9924C45.0424 20.5269 45.0737 21.1723 45.41 21.6767L45.5829 21.9362C44.4791 22.8854 43.2024 23.6449 41.843 24.1572L39.5015 19.672V18.6714C39.5015 18.3619 39.3749 18.0657 39.1509 17.8522L37.0424 15.8393C36.9261 15.7283 36.7874 15.6433 36.6357 15.59L34.7377 14.923C34.1472 14.7152 33.5008 15.0259 33.2935 15.616C33.0861 16.2063 33.3963 16.8528 33.9865 17.0602L35.6545 17.6465L37.2361 19.1562V19.95C37.2361 20.1325 37.2803 20.3124 37.3648 20.4743L40.2962 26.0893C40.5598 26.5946 41.1581 26.8254 41.6921 26.6279L42.5457 26.3132C44.5287 25.5818 46.3667 24.4054 47.8611 22.9112C48.2429 22.5293 48.3022 21.9313 48.0026 21.4819L47.9423 21.3914H48.4832C48.6524 21.3914 48.8124 21.4652 48.9223 21.5939L50.3178 23.2277C50.3628 23.2804 50.3976 23.34 50.4214 23.4053L51.9614 27.6401C52.0937 28.004 52.4028 28.275 52.7805 28.3588C52.862 28.3768 52.9441 28.3856 53.0258 28.3856C53.323 28.3856 53.6122 28.2686 53.8267 28.0538L54.5598 27.3208C55.024 26.8565 55.3436 26.269 55.4963 25.6177C56.63 34.7034 53.0674 44.1022 45.5371 50.0125C45.0449 50.3987 44.9591 51.1106 45.3455 51.6029C45.7316 52.0951 46.4435 52.1809 46.9358 51.7945C52.3724 47.5276 56.1073 41.4245 57.4525 34.6096C58.8103 27.7291 57.6248 20.5906 54.1141 14.5099ZM5.3565 32.0308L10.0274 35.5823C10.1655 35.6873 10.3257 35.7591 10.4958 35.7923L13.3111 36.3424C13.6704 36.4126 13.9702 36.6252 14.1554 36.941C14.3406 37.2567 14.3796 37.622 14.2656 37.9699C14.0311 38.6851 14.03 39.4414 14.2626 40.157L14.6214 41.2613C14.8359 41.9213 14.4732 42.6328 13.8133 42.8472L12.6876 43.213C12.2949 43.3406 12.0028 43.6718 11.9252 44.0771L11.0192 48.8065C9.02738 46.9835 7.27854 44.8289 5.85902 42.3701C4.12717 39.3708 3.04511 36.1716 2.5682 32.9367L5.3565 32.0308ZM11.9582 13.9637L10.6257 15.3914C10.5662 15.4552 10.5142 15.5256 10.4708 15.6013L7.44484 20.8843L4.75543 22.8073C4.2545 23.1655 4.13148 23.858 4.47835 24.3669L5.48417 25.8423C4.9044 25.9286 4.3841 25.9997 4.03814 26.0374C3.97164 25.9737 3.90208 25.909 3.83015 25.8421C3.56088 25.592 3.18671 25.2579 2.62892 24.7698C3.54887 19.076 6.29255 13.7119 10.6077 9.61732C11.4339 9.87752 12.112 10.4939 12.4433 11.2978C12.816 12.2021 12.6254 13.2485 11.9582 13.9637ZM21.194 20.1537C21.6992 19.8694 22.8719 19.8278 23.7281 19.7974C24.0712 19.7853 24.3955 19.7738 24.685 19.7495C24.8378 19.7367 25.0075 19.7391 25.1676 19.7516C25.0961 19.9351 25.0729 20.1365 25.1039 20.3363C25.1584 20.6878 25.3751 20.9931 25.6887 21.1609C25.9012 21.2746 26.197 21.4719 26.5101 21.6806C27.3954 22.2708 28.3989 22.9398 29.3417 22.9998C30.199 23.0554 30.676 22.5668 30.8804 22.3587C30.8967 22.3422 30.9121 22.3257 30.9284 22.3106C31.0435 22.2168 31.1513 22.0911 31.2315 21.9394C31.4127 21.9911 31.603 22.0427 31.798 22.0956C32.4688 22.2772 33.7173 22.6152 33.9931 22.9075C34.483 23.4269 34.8649 24.4155 35.2019 25.2876C35.3722 25.7284 35.533 26.1444 35.7135 26.5301C35.791 26.6956 35.8672 26.8661 35.9447 27.0387C36.4674 28.2046 37.0598 29.5262 38.3167 30.3477C38.8866 30.7203 39.5852 30.8273 40.2017 30.9219C40.2762 30.9333 40.3617 30.9465 40.4484 30.9607C40.0825 31.4712 39.5616 31.9563 39.0111 32.4689C37.6088 33.7748 35.8636 35.4001 36.6673 37.993C37.0467 39.2174 37.0644 39.3497 36.4544 40.0133C36.3712 40.1038 36.2937 40.1863 36.2211 40.2635C35.6987 40.8197 35.286 41.259 34.9443 42.3352C34.8451 42.6477 34.7165 42.7925 34.483 43.0553C34.2963 43.2656 34.0638 43.5275 33.8493 43.8945C33.5924 44.3343 33.5075 44.7577 33.4394 45.0979C33.3722 45.4327 33.3341 45.6007 33.2027 45.762C32.9036 46.1292 32.3455 46.6625 31.7727 47.0265C31.2402 47.3646 30.9294 47.4108 30.8235 47.4044C30.7026 47.2748 30.2648 46.7074 29.6032 44.7439C29.4401 44.2595 29.2138 43.7611 28.9949 43.2791C28.5124 42.2165 28.0137 41.1177 28.2563 40.3667C28.285 40.2781 28.3133 40.1916 28.3412 40.107C28.7288 38.9254 29.0947 37.8097 28.4168 36.1853C28.2104 35.6906 27.8818 35.3291 27.5921 35.0101C27.4047 34.8038 27.1923 34.57 27.1595 34.4354C27.1196 34.2713 27.1209 34.0818 27.1224 33.8623C27.1262 33.2704 27.1321 32.3761 26.243 31.5435C24.9894 30.3701 23.5276 30.7316 22.5602 30.9708C22.2631 31.0442 21.9823 31.1138 21.7336 31.143C20.1422 31.3295 18.7214 30.7291 17.8344 29.4948C16.9065 28.2037 16.7719 26.4663 17.483 24.9608C17.8273 24.2323 18.3474 23.647 18.9496 22.9696C19.0811 22.8215 19.2139 22.6722 19.3466 22.5193C19.5675 22.2646 19.8106 21.9198 20.0677 21.5547C20.3745 21.1191 20.9459 20.308 21.194 20.1537Z" fill="#D01C69"/>
<path d="M46.4475 39.0002L45.9025 36.946C45.7834 36.4974 45.4028 36.1668 44.9421 36.1118C44.4808 36.0578 44.0335 36.2885 43.812 36.6964C43.6879 36.9252 43.576 37.1677 43.468 37.402C43.2862 37.7964 43.0981 38.2042 42.9025 38.4293C42.7926 38.5557 42.5103 38.692 42.2375 38.8236C41.5854 39.1383 40.6921 39.5693 40.3509 40.6571C40.1391 41.3318 40.2182 41.8655 40.2759 42.2552C40.3259 42.5931 40.3374 42.7103 40.2469 42.9228L40.2356 42.9492C39.875 43.7953 39.2042 45.3705 40.1449 46.7096C40.8161 47.6652 41.5218 47.9109 42.0702 47.9109C42.1772 47.9112 42.2785 47.9018 42.3722 47.8866C43.5277 47.6977 44.3963 46.4958 45.1061 44.1037L46.4385 39.6132C46.4978 39.4135 46.501 39.2014 46.4475 39.0002ZM42.9344 43.4593C42.5726 44.6789 42.2525 45.2482 42.0677 45.5006C42.0464 45.4734 42.0233 45.4426 41.9986 45.4074C41.7821 45.099 42.1057 44.3396 42.3198 43.837L42.3312 43.8105C42.6765 43.0001 42.5842 42.3777 42.517 41.9232C42.4738 41.6322 42.4584 41.5071 42.5124 41.3353C42.5569 41.194 42.8223 41.0569 43.2222 40.8639C43.3994 40.7783 43.5946 40.6841 43.7916 40.5702L42.9344 43.4593Z" fill="#D01C69"/>
<path d="M30.5899 13.4647L30.5135 13.438C29.9236 13.2314 29.2768 13.5417 29.0697 14.132C28.8626 14.7224 29.1734 15.3687 29.7637 15.5757L29.84 15.6025C29.9641 15.646 30.0905 15.6666 30.215 15.6666C30.6826 15.6666 31.1203 15.3747 31.2839 14.9085C31.491 14.3181 31.1802 13.6717 30.5899 13.4647Z" fill="#D01C69"/>
</g>
<defs>
<clipPath id="clip0_1:505">
<rect width="58" height="58" fill="white"/>
</clipPath>
</defs>
</svg>
