<svg width="125" height="125" viewBox="0 0 125 125" fill="none" xmlns="http://www.w3.org/2000/svg">
<g clip-path="url(#clip0_1:404)">
<path d="M118.848 54.3471L98.9343 34.4337C98.2356 33.735 97.3198 33.307 96.3589 33.1935V28.6149H101.634C103.4 28.6149 104.978 27.5607 105.654 25.9293C106.33 24.2977 105.96 22.4366 104.711 21.1881L84.7973 1.27466C83.9755 0.452639 82.883 0 81.7207 0C80.5583 0 79.466 0.452638 78.644 1.27442L58.7306 21.1878C57.482 22.4366 57.1119 24.2977 57.7877 25.9291C58.4637 27.5607 60.0411 28.6146 61.8073 28.6146H67.0824V51.1728C64.987 50.8049 62.8319 50.6118 60.6324 50.6118C58.6136 50.6118 56.6327 50.7758 54.7001 51.0869V44.7226H59.9755C61.7413 44.7226 63.319 43.6684 63.995 42.037C64.6708 40.4054 64.3007 38.5443 63.0521 37.2958L54.4962 28.7399C53.7809 28.0248 52.6217 28.0248 51.9066 28.7399C51.1915 29.455 51.1915 30.6144 51.9066 31.3292L60.4625 39.8852C60.7455 40.1681 60.6776 40.4767 60.6117 40.6357C60.5458 40.7943 60.3759 41.0607 59.9757 41.0607H52.8692C51.8578 41.0607 51.0382 41.8805 51.0382 42.8918V51.8691C49.1314 52.3786 47.2843 53.0356 45.5103 53.8281L32.2195 40.5373C30.523 38.841 27.7632 38.8407 26.0666 40.5373L25.5432 41.0607H20.1487C19.7483 41.0607 19.5781 40.7943 19.5124 40.6357C19.4467 40.477 19.3786 40.1684 19.6618 39.8854L39.5752 19.972C39.8438 19.7032 40.2803 19.7037 40.5486 19.972L45.857 25.2804C46.5723 25.9955 47.7315 25.9955 48.4466 25.2804C49.1617 24.5653 49.1617 23.4059 48.4466 22.691L43.1382 17.3826C41.4417 15.6861 38.6819 15.6866 36.9854 17.3826L17.0722 37.296C15.8234 38.5448 15.4531 40.4057 16.1289 42.0373C16.8049 43.6689 18.3825 44.7231 20.1487 44.7231H21.8811L6.15324 60.4509C4.90445 61.6997 4.53409 63.5608 5.20987 65.1921C5.8859 66.8237 7.4633 67.878 9.22942 67.878H14.5048V116.071C14.5048 118.469 16.4565 120.421 18.8554 120.421H39.4302C40.2273 120.421 41.0032 120.202 41.6771 119.795C47.2315 123.099 53.7137 125 60.6324 125C68.5175 125 75.8356 122.532 81.8593 118.33C82.6242 119.582 83.9992 120.421 85.5703 120.421H106.145C108.544 120.421 110.496 118.47 110.496 116.071V61.7742H115.771C117.537 61.7742 119.115 60.72 119.791 59.0884C120.466 57.457 120.096 55.5957 118.848 54.3471ZM18.8554 116.759C18.4758 116.759 18.167 116.45 18.167 116.071V66.0466C18.167 65.0354 17.3474 64.2156 16.3359 64.2156H9.22918C8.82878 64.2156 8.65886 63.9492 8.59319 63.7905C8.52727 63.6318 8.4594 63.3232 8.7426 63.04L28.656 43.1266C28.8315 42.9511 29.0364 42.925 29.1426 42.925C29.2493 42.925 29.4539 42.9511 29.6294 43.1266L42.0806 55.5779C30.947 62.012 23.4387 74.0484 23.4387 87.8058C23.4387 99.4923 28.8582 109.935 37.3138 116.759H18.8554V116.759ZM60.6324 121.338C42.1431 121.338 27.1006 106.296 27.1006 87.806C27.1006 69.3164 42.1429 54.2741 60.6324 54.2741C79.122 54.2741 94.1646 69.3164 94.1646 87.806C94.1646 106.296 79.1223 121.338 60.6324 121.338ZM116.407 57.6872C116.341 57.8459 116.171 58.1123 115.771 58.1123H108.665C107.653 58.1123 106.834 58.9321 106.834 59.9433V116.071C106.834 116.45 106.525 116.759 106.145 116.759H85.5705C85.1909 116.759 84.882 116.45 84.882 116.071C84.882 116.043 84.8791 116.016 84.8779 115.989C92.8018 109.163 97.8269 99.0604 97.8269 87.806C97.8269 84.2169 97.312 80.7464 96.3589 77.4605V55.1584C96.3589 54.1472 95.5393 53.3274 94.5278 53.3274C93.5164 53.3274 92.6968 54.1472 92.6968 55.1584V68.9773C87.8862 60.8169 80.0522 54.6423 70.7448 52.0095V26.7838C70.7448 25.7726 69.9252 24.9527 68.9137 24.9527H61.8073C61.4069 24.9527 61.2369 24.6864 61.1713 24.5277C61.1053 24.369 61.0375 24.0602 61.3204 23.7772L81.2338 3.86354C81.4094 3.68825 81.6142 3.66188 81.7207 3.66188C81.8271 3.66188 82.0317 3.688 82.2072 3.86354L102.121 23.7769C102.404 24.0599 102.336 24.3685 102.27 24.5274C102.204 24.6861 102.034 24.9525 101.634 24.9525H94.5276C93.5161 24.9525 92.6965 25.7723 92.6965 26.7836V46.603C92.6965 47.6142 93.5161 48.434 94.5276 48.434C95.5391 48.434 96.3587 47.6142 96.3587 46.603V37.037L116.258 56.9363C116.541 57.2197 116.473 57.5283 116.407 57.6872Z" fill="#CF1862"/>
<path d="M60.6323 58.2393C54.353 58.2393 48.3542 60.1841 43.2841 63.8638C42.4655 64.4578 42.2837 65.6028 42.8777 66.4211C43.4716 67.2397 44.6169 67.4216 45.4353 66.8276C49.8757 63.605 55.1308 61.9014 60.6323 61.9014C74.916 61.9014 86.5366 73.522 86.5366 87.8054C86.5366 102.089 74.916 113.71 60.6323 113.71C46.3486 113.71 34.728 102.089 34.728 87.8054C34.728 82.2375 36.469 76.9309 39.7627 72.4597C40.3625 71.6455 40.1887 70.4993 39.3745 69.8994C38.5608 69.2998 37.4143 69.4736 36.8144 70.2876C33.0537 75.3928 31.0659 81.4504 31.0659 87.8054C31.0659 104.108 44.3293 117.372 60.6323 117.372C76.9353 117.372 90.1987 104.108 90.1987 87.8054C90.1987 71.5027 76.9353 58.2393 60.6323 58.2393Z" fill="#CF1862"/>
<path d="M60.6321 108.247C71.9036 108.247 81.0735 99.0772 81.0735 87.8057C81.0735 76.5342 71.9036 67.3643 60.6321 67.3643C49.3606 67.3643 40.1907 76.5342 40.1907 87.8057C40.1907 99.0772 49.3606 108.247 60.6321 108.247ZM60.6321 71.0266C69.8841 71.0266 77.4114 78.5537 77.4114 87.8059C77.4114 97.0581 69.8843 104.585 60.6321 104.585C51.3799 104.585 43.8528 97.0581 43.8528 87.8059C43.8528 78.5537 51.3802 71.0266 60.6321 71.0266Z" fill="#CF1862"/>
<path d="M58.8015 98.4248V99.8723C58.8015 100.884 59.6211 101.703 60.6325 101.703C61.644 101.703 62.4636 100.884 62.4636 99.8723V98.4248C66.2073 97.7315 69.0141 94.9609 69.0141 91.6565C69.0141 86.7473 64.5642 85.5828 61.3154 84.7324C58.2785 83.9377 57.2004 83.4729 57.2004 82.4478C57.2004 81.2375 58.8042 80.176 60.6328 80.176C62.4614 80.176 64.0654 81.2375 64.0654 82.4478C64.0654 83.459 64.885 84.2788 65.8965 84.2788C66.9079 84.2788 67.7275 83.459 67.7275 82.4478C67.7275 79.7053 65.4912 77.3923 62.4638 76.7153V75.2354C62.4638 74.2241 61.6443 73.4043 60.6328 73.4043C59.6213 73.4043 58.8017 74.2241 58.8017 75.2354V76.7153C55.7746 77.3923 53.5383 79.7053 53.5383 82.4478C53.5383 86.4824 57.4975 87.5186 60.3884 88.2752C64.1128 89.25 65.3523 89.8753 65.3523 91.6565C65.3523 93.4317 63.1909 94.9314 60.6328 94.9314C58.0747 94.9314 55.9135 93.4317 55.9135 91.6565C55.9135 90.6453 55.094 89.8254 54.0825 89.8254C53.071 89.8254 52.2514 90.6453 52.2514 91.6565C52.2512 94.9609 55.0581 97.7312 58.8015 98.4248Z" fill="#CF1862"/>
</g>
<defs>
<clipPath id="clip0_1:404">
<rect width="125" height="125" fill="white"/>
</clipPath>
</defs>
</svg>
