<svg width="23" height="22" viewBox="0 0 23 22" fill="none" xmlns="http://www.w3.org/2000/svg">
<path d="M11.871 18.1692C11.6386 18.1692 11.4146 18.086 11.24 17.9348C10.5806 17.3649 9.94484 16.8294 9.38395 16.3569L9.38108 16.3545C7.73665 14.9694 6.31662 13.7732 5.32859 12.5949C4.22412 11.2776 3.70969 10.0286 3.70969 8.66422C3.70969 7.33856 4.16958 6.11556 5.00456 5.22035C5.84951 4.31455 7.00889 3.81567 8.26952 3.81567C9.21172 3.81567 10.0746 4.1101 10.8341 4.6907C11.2174 4.98377 11.5649 5.34245 11.871 5.76083C12.1772 5.34245 12.5245 4.98377 12.9079 4.6907C13.6674 4.1101 14.5303 3.81567 15.4725 3.81567C16.733 3.81567 17.8925 4.31455 18.7375 5.22035C19.5725 6.11556 20.0322 7.33856 20.0322 8.66422C20.0322 10.0286 19.5179 11.2776 18.4135 12.5948C17.4254 13.7732 16.0055 14.9693 14.3613 16.3542C13.7995 16.8274 13.1627 17.3638 12.5018 17.935C12.3274 18.086 12.1032 18.1692 11.871 18.1692ZM8.26952 4.76074C7.27912 4.76074 6.3693 5.15142 5.70742 5.8609C5.03569 6.58108 4.66571 7.57661 4.66571 8.66422C4.66571 9.81176 5.09721 10.8381 6.0647 11.9919C6.9998 13.1072 8.39069 14.2787 10.0011 15.6353L10.0041 15.6377C10.5671 16.112 11.2053 16.6496 11.8696 17.2237C12.5378 16.6485 13.177 16.11 13.7412 15.635C15.3515 14.2785 16.7422 13.1072 17.6774 11.9919C18.6447 10.8381 19.0762 9.81176 19.0762 8.66422C19.0762 7.57661 18.7062 6.58108 18.0345 5.8609C17.3727 5.15142 16.4628 4.76074 15.4725 4.76074C14.747 4.76074 14.0809 4.9887 13.4927 5.43821C12.9686 5.83899 12.6035 6.34562 12.3894 6.70011C12.2793 6.8824 12.0855 6.99121 11.871 6.99121C11.6564 6.99121 11.4626 6.8824 11.3525 6.70011C11.1386 6.34562 10.7735 5.83899 10.2492 5.43821C9.66103 4.9887 8.99491 4.76074 8.26952 4.76074Z" fill="#171717"/>
</svg>
