<svg width="21" height="21" viewBox="0 0 21 21" fill="none" xmlns="http://www.w3.org/2000/svg">
<g clip-path="url(#clip0_326:43)">
<path d="M20.9806 6.17406C20.9314 5.05825 20.751 4.29114 20.4925 3.62643C20.2259 2.92085 19.8156 2.28915 19.2782 1.76402C18.753 1.23071 18.1172 0.816306 17.4198 0.553819C16.7512 0.295338 15.9881 0.114898 14.8723 0.0657019C13.7481 0.0123391 13.3913 0 10.5401 0C7.68899 0 7.33212 0.0123391 6.21214 0.0615355C5.09633 0.110732 4.32922 0.291332 3.66467 0.549653C2.95894 0.816306 2.32724 1.22654 1.8021 1.76402C1.26879 2.28915 0.854552 2.92502 0.591905 3.62242C0.333424 4.29114 0.152984 5.05408 0.103788 6.16989C0.0504251 7.29403 0.0380859 7.65091 0.0380859 10.5021C0.0380859 13.3532 0.0504251 13.7101 0.0996214 14.83C0.148818 15.9459 0.329418 16.713 0.587898 17.3777C0.854552 18.0833 1.26879 18.715 1.8021 19.2401C2.32724 19.7734 2.9631 20.1878 3.6605 20.4503C4.32922 20.7088 5.09216 20.8892 6.20813 20.9384C7.32795 20.9878 7.68498 20.9999 10.5361 20.9999C13.3873 20.9999 13.7441 20.9878 14.8641 20.9384C15.9799 20.8892 16.747 20.7088 17.4116 20.4503C18.8229 19.9046 19.9387 18.7888 20.4844 17.3777C20.7427 16.709 20.9233 15.9459 20.9725 14.83C21.0217 13.7101 21.034 13.3532 21.034 10.5021C21.034 7.65091 21.0298 7.29403 20.9806 6.17406ZM19.0895 14.748C19.0444 15.7736 18.8721 16.3274 18.7285 16.6966C18.3756 17.6115 17.6496 18.3376 16.7347 18.6904C16.3655 18.834 15.8077 19.0063 14.7861 19.0513C13.6784 19.1007 13.3462 19.1128 10.5443 19.1128C7.74235 19.1128 7.40599 19.1007 6.30236 19.0513C5.27677 19.0063 4.72295 18.834 4.35374 18.6904C3.89847 18.5222 3.48407 18.2555 3.14771 17.9068C2.79901 17.5663 2.53235 17.1561 2.36409 16.7008C2.22051 16.3316 2.04824 15.7736 2.00321 14.7522C1.95386 13.6445 1.94168 13.3122 1.94168 10.5102C1.94168 7.70828 1.95386 7.37192 2.00321 6.26844C2.04824 5.24285 2.22051 4.68903 2.36409 4.31982C2.53235 3.86439 2.79901 3.45015 3.15187 3.11363C3.49224 2.76493 3.90248 2.49828 4.3579 2.33017C4.72712 2.18659 5.2851 2.01432 6.30653 1.96913C7.41416 1.91994 7.74652 1.9076 10.5483 1.9076C13.3544 1.9076 13.6866 1.91994 14.7902 1.96913C15.8158 2.01432 16.3696 2.18659 16.7389 2.33017C17.1941 2.49828 17.6085 2.76493 17.9449 3.11363C18.2936 3.45416 18.5602 3.86439 18.7285 4.31982C18.8721 4.68903 19.0444 5.24686 19.0895 6.26844C19.1387 7.37608 19.1511 7.70828 19.1511 10.5102C19.1511 13.3122 19.1387 13.6404 19.0895 14.748Z" fill="#5EBA49"/>
<path d="M10.5391 5.10718C7.56092 5.10718 5.14453 7.52341 5.14453 10.5018C5.14453 13.4802 7.56092 15.8964 10.5391 15.8964C13.5175 15.8964 15.9337 13.4802 15.9337 10.5018C15.9337 7.52341 13.5175 5.10718 10.5391 5.10718ZM10.5391 14.0011C8.60702 14.0011 7.03979 12.4341 7.03979 10.5018C7.03979 8.56951 8.60702 7.00244 10.5391 7.00244C12.4714 7.00244 14.0385 8.56951 14.0385 10.5018C14.0385 12.4341 12.4714 14.0011 10.5391 14.0011Z" fill="#5EBA49"/>
<path d="M17.4069 4.89441C17.4069 5.58988 16.843 6.1538 16.1473 6.1538C15.4519 6.1538 14.8879 5.58988 14.8879 4.89441C14.8879 4.19877 15.4519 3.63501 16.1473 3.63501C16.843 3.63501 17.4069 4.19877 17.4069 4.89441Z" fill="#5EBA49"/>
</g>
<defs>
<clipPath id="clip0_326:43">
<rect width="21" height="21" fill="white"/>
</clipPath>
</defs>
</svg>
