<svg width="227" height="255" viewBox="0 0 227 255" fill="none" xmlns="http://www.w3.org/2000/svg">
<g opacity="0.2">
<path fill-rule="evenodd" clip-rule="evenodd" d="M113.166 19.2749C121.558 19.2749 133.392 33.519 141.354 65.0295L141.569 65.6772C142.86 70.6414 148.024 73.447 152.973 71.9363C184.388 62.8716 202.678 66.325 206.766 73.447C210.424 79.922 205.474 93.0872 193.641 107.548C179.224 125.245 157.061 143.375 130.81 158.483C128.658 159.778 126.507 160.857 124.355 162.152C123.71 162.584 123.064 162.368 122.418 161.936C119.191 159.13 114.887 157.835 110.369 158.698C104.775 159.778 100.256 164.31 99.1797 169.922C97.4585 178.986 104.344 186.972 113.166 186.972C114.887 186.972 116.61 186.54 118.115 186.109C118.115 186.109 119.837 185.461 120.482 185.029C125.001 182.871 129.734 180.498 134.253 177.907C136.189 176.828 138.126 175.749 140.063 174.67C168.25 158.483 192.349 138.843 207.842 119.634C225.485 98.052 230.65 78.4112 222.689 64.5983C213.651 48.8427 189.767 44.5263 156.846 52.2961C146.948 19.4902 131.241 0.928955 113.166 0.928955C96.1675 0.928955 85.6242 11.5051 73.5748 39.994C79.3848 41.2888 85.4091 43.0155 91.4335 44.9581C97.8887 29.2026 106.066 19.2749 113.166 19.2749Z" fill="white"/>
<path fill-rule="evenodd" clip-rule="evenodd" d="M209.132 137.548L208.916 137.332C204.828 141.649 200.524 145.965 195.79 150.282C206.119 163.663 210.423 175.749 206.98 181.793C202.891 188.915 184.602 192.368 153.402 183.303L152.756 183.519C147.808 182.224 142.858 185.245 141.568 190.209C133.606 221.936 121.557 236.181 113.165 236.181C105.633 236.181 97.027 225.174 90.3568 207.692C82.3956 186.54 77.8767 158.052 77.8767 127.836C77.8767 125.461 77.8767 122.872 77.8767 120.498C77.8767 119.85 78.3068 119.202 78.9526 118.987C82.8257 117.691 86.2687 114.671 87.7748 110.138C89.711 104.742 87.9898 98.4831 83.686 94.8138C76.5856 88.7713 66.2574 90.714 61.9536 98.2679C61.0933 99.7786 60.4481 101.289 60.2324 103.015C60.2324 103.015 60.0173 104.958 60.0173 105.606C59.5872 110.785 59.3721 115.965 59.3721 121.145C59.3721 123.303 59.3721 125.677 59.3721 127.836C59.3721 160.425 64.1061 191.073 72.9283 214.383C82.8257 240.498 97.027 254.742 112.95 254.742C131.24 254.742 146.732 236.181 156.629 203.591C189.55 211.36 213.435 207.044 222.472 191.289C231.294 176.612 227.421 162.152 209.132 137.548Z" fill="white"/>
<path fill-rule="evenodd" clip-rule="evenodd" d="M19.5592 182.008C15.4704 174.67 21.7105 157.404 44.949 134.742L45.3798 134.31C48.8227 130.641 48.8227 124.813 45.1641 121.361C21.7105 98.483 15.4704 80.7855 19.5592 73.6634C23.2166 67.1878 37.2028 65.0299 55.708 68.0515C78.0856 71.7208 104.767 82.0803 131.018 97.1881C133.17 98.483 135.321 99.7778 137.258 100.857C137.903 101.289 138.118 101.936 138.118 102.583C137.258 106.685 138.334 111.217 141.346 114.67C145.003 118.986 151.244 120.713 156.623 118.771C165.445 115.749 168.888 105.821 164.369 98.0518C163.509 96.5404 162.433 95.2455 161.142 94.1666C161.142 94.1666 159.635 93.087 158.99 92.6551C154.687 89.8501 150.383 87.0439 146.08 84.2382C144.143 83.1593 142.207 81.8644 140.27 80.7855C112.298 64.5981 83.2497 53.3749 58.7202 49.2744C31.1778 45.3898 11.813 50.5692 3.63674 64.3822C-5.4011 80.1377 2.56078 103.015 25.7993 127.836C2.56078 152.655 -5.4011 175.533 3.63674 191.289C12.0281 205.965 26.4445 210.065 56.784 206.397C56.784 206.397 56.999 206.397 57.2141 206.397C55.4929 200.785 53.9862 194.742 52.4801 188.483C35.6968 190.425 23.0015 188.267 19.5592 182.008Z" fill="white"/>
</g>
</svg>
