<svg width="30" height="27" viewBox="0 0 30 27" fill="none" xmlns="http://www.w3.org/2000/svg">
<path d="M15 27C14.5729 27 14.1611 26.8435 13.8403 26.5592C12.6283 25.4871 11.4599 24.4797 10.429 23.5911L10.4237 23.5864C7.40135 20.981 4.79141 18.7309 2.97546 16.5144C0.945511 14.0365 0 11.6871 0 9.12048C0 6.62682 0.845261 4.32627 2.37991 2.6423C3.93288 0.93842 6.06377 0 8.38074 0C10.1125 0 11.6984 0.553837 13.0943 1.646C13.7988 2.19729 14.4374 2.87199 15 3.65898C15.5628 2.87199 16.2012 2.19729 16.9059 1.646C18.3018 0.553837 19.8878 0 21.6195 0C23.9362 0 26.0674 0.93842 27.6203 2.6423C29.155 4.32627 30 6.62682 30 9.12048C30 11.6871 29.0547 14.0365 27.0248 16.5142C25.2088 18.7309 22.5991 20.9807 19.5772 23.586C18.5445 24.476 17.3742 25.4851 16.1595 26.5596C15.8389 26.8435 15.4269 27 15 27ZM8.38074 1.77774C6.56044 1.77774 4.88823 2.51264 3.67172 3.84722C2.43713 5.20194 1.75713 7.07462 1.75713 9.12048C1.75713 11.2791 2.5502 13.2097 4.32838 15.3801C6.04706 17.478 8.60344 19.6818 11.5633 22.2336L11.5688 22.2382C12.6036 23.1303 13.7766 24.1417 14.9975 25.2216C16.2257 24.1396 17.4005 23.1266 18.4373 22.2331C21.397 19.6813 23.9532 17.478 25.6718 15.3801C27.4498 13.2097 28.2429 11.2791 28.2429 9.12048C28.2429 7.07462 27.5629 5.20194 26.3283 3.84722C25.112 2.51264 23.4396 1.77774 21.6195 1.77774C20.286 1.77774 19.0617 2.20655 17.9807 3.05212C17.0174 3.80601 16.3463 4.75901 15.9528 5.42584C15.7505 5.76875 15.3944 5.97342 15 5.97342C14.6056 5.97342 14.2495 5.76875 14.0472 5.42584C13.6539 4.75901 12.9829 3.80601 12.0193 3.05212C10.9383 2.20655 9.71397 1.77774 8.38074 1.77774Z" fill="#171717"/>
</svg>
