<svg width="23" height="23" viewBox="0 0 23 23" fill="none" xmlns="http://www.w3.org/2000/svg">
<g clip-path="url(#clip0_326:34)">
<path d="M10.349 15.9741C8.68841 15.8009 7.19115 15.3919 5.90925 14.3894C5.7502 14.2646 5.58598 14.1444 5.44083 14.0051C4.87975 13.4662 4.82321 12.849 5.26719 12.213C5.647 11.6688 6.28458 11.5232 6.94729 11.8357C7.07561 11.8962 7.19788 11.9718 7.31499 12.0531C9.70401 13.6946 12.9859 13.7399 15.3839 12.1269C15.6215 11.9447 15.8755 11.7962 16.1698 11.7204C16.7421 11.5734 17.2758 11.7836 17.5829 12.2844C17.9338 12.8562 17.9293 13.4144 17.497 13.8583C16.8338 14.539 16.0363 15.0314 15.1502 15.3751C14.3122 15.7 13.3944 15.8635 12.4861 15.9721C12.6232 16.1213 12.6878 16.1946 12.7735 16.2808C14.0069 17.5201 15.2457 18.7542 16.4751 19.9973C16.894 20.4208 16.9815 20.946 16.7508 21.4387C16.4987 21.9771 15.9342 22.3313 15.3808 22.2934C15.0301 22.2692 14.7567 22.0946 14.5137 21.8499C13.5829 20.9132 12.6346 19.9939 11.7226 19.0395C11.4572 18.762 11.3296 18.8145 11.0954 19.0555C10.159 20.0195 9.20732 20.9687 8.25005 21.9125C7.82021 22.3362 7.3087 22.4125 6.81021 22.1705C6.28032 21.9136 5.94313 21.3727 5.96915 20.8291C5.9871 20.4614 6.16792 20.1805 6.42031 19.9286C7.64096 18.7097 8.85824 17.4878 10.076 16.2669C10.1565 16.1857 10.2317 16.0995 10.349 15.9741Z" fill="#5EBA49"/>
<path d="M11.3603 11.7285C8.39784 11.7184 5.96866 9.26253 5.98593 6.29538C6.00298 3.29547 8.43373 0.877951 11.4253 0.886252C14.423 0.894328 16.8291 3.34662 16.814 6.37771C16.7988 9.33881 14.3528 11.7388 11.3603 11.7285ZM14.0526 6.30255C14.0475 4.8293 12.8741 3.65643 11.4038 3.65509C9.92112 3.65352 8.73727 4.84769 8.74871 6.33441C8.7597 7.80206 9.94311 8.96662 11.4175 8.96124C12.8874 8.95608 14.0576 7.77559 14.0526 6.30255Z" fill="#5EBA49"/>
</g>
<defs>
<clipPath id="clip0_326:34">
<rect width="21.4205" height="21.4205" fill="white" transform="translate(0.693359 0.88623)"/>
</clipPath>
</defs>
</svg>
