<svg width="117" height="117" viewBox="0 0 117 117" fill="none" xmlns="http://www.w3.org/2000/svg">
<g clip-path="url(#clip0_1:375)">
<path d="M106.578 20.2033C90.4801 15.7925 74.2877 8.92449 59.7512 0.341916C58.979 -0.113972 58.0209 -0.113972 57.2489 0.341916C42.2931 9.17106 26.9757 15.6675 10.4209 20.2033C9.35147 20.496 8.61017 21.4681 8.61017 22.5771V47.7243C8.61017 73.6203 20.5567 90.7617 30.5789 100.581C41.3685 111.154 53.9368 117 58.5001 117C63.0628 117 75.6312 111.154 86.4207 100.581C96.4427 90.7619 108.389 73.6206 108.389 47.7243V22.5769C108.389 21.4681 107.647 20.496 106.578 20.2033ZM103.466 47.7241C103.466 71.9108 92.3237 87.9057 82.9756 97.0651C72.3654 107.461 61.0213 112.077 58.5001 112.077C55.9789 112.077 44.634 107.461 34.0236 97.0651C24.6757 87.9055 13.5326 71.9108 13.5326 47.7241V24.4452C29.3637 19.9503 44.107 13.6774 58.5005 5.31304C72.5346 13.4555 88.0135 20.0404 103.466 24.4443V47.7241Z" fill="#D01C69"/>
<path d="M36.6845 24.1699C36.1864 22.9051 34.7575 22.2838 33.4924 22.7821C29.0958 24.5145 24.5831 26.1091 20.0797 27.5218C19.0534 27.844 18.3551 28.7946 18.3551 29.87V39.3742C18.3551 40.7334 19.4572 41.8353 20.8162 41.8353C22.1752 41.8353 23.2773 40.7334 23.2773 39.3742V31.6686C27.3172 30.3615 31.3528 28.9157 35.2968 27.3616C36.5616 26.8637 37.1829 25.4347 36.6845 24.1699Z" fill="#D01C69"/>
<path d="M41.36 24.6368C41.6902 24.6368 42.0254 24.5703 42.3469 24.43L42.3922 24.4103C43.6374 23.8646 44.1981 22.4152 43.6524 21.1704C43.1063 19.9253 41.6486 19.362 40.4048 19.9072L40.365 19.9243C39.1192 20.4684 38.5566 21.9168 39.1007 23.1622C39.5044 24.0867 40.4105 24.6368 41.36 24.6368Z" fill="#D01C69"/>
<path d="M87.8224 79.3595C86.6851 78.6162 85.16 78.9358 84.4157 80.0736C82.3876 83.1778 80.0083 86.1503 77.3429 88.9078C75.151 91.1751 72.7758 93.2884 70.2834 95.1885C69.2028 96.0126 68.9948 97.5569 69.8186 98.638C70.3033 99.273 71.0361 99.6071 71.7774 99.6071C72.298 99.6071 72.8224 99.4428 73.268 99.1028C75.9565 97.0528 78.5182 94.7738 80.8815 92.3291C83.7633 89.3484 86.3387 86.1309 88.5365 82.766C89.2803 81.628 88.9602 80.1029 87.8224 79.3595Z" fill="#D01C69"/>
<path d="M64.5681 99.0482L64.4269 99.1314C63.2507 99.8126 62.8487 101.318 63.5297 102.494C63.9861 103.283 64.8121 103.723 65.662 103.723C66.0802 103.723 66.5047 103.616 66.8925 103.391L67.0555 103.295C68.2284 102.608 68.6224 101.101 67.9355 99.9278C67.2481 98.7553 65.7404 98.362 64.5681 99.0482Z" fill="#D01C69"/>
<path d="M41.7236 53.477C40.2124 51.9656 38.2026 51.1339 36.0651 51.1339C33.9275 51.1339 31.9175 51.9659 30.4057 53.477C27.2858 56.5976 27.2858 61.6753 30.4057 64.7956L44.9383 79.3278C46.4497 80.8388 48.4595 81.6708 50.5973 81.6708C52.735 81.6708 54.7448 80.8388 56.2565 79.3274L86.5944 48.9892C89.7141 45.8679 89.7141 40.791 86.5939 37.6716C85.0825 36.1602 83.0727 35.3284 80.9347 35.3284C78.797 35.3284 76.7872 36.1604 75.2755 37.6716L50.597 62.3501L41.7236 53.477ZM78.7563 41.1523C79.3379 40.5707 80.1118 40.2506 80.935 40.2506C81.7585 40.2506 82.5318 40.5707 83.1138 41.1523C84.3147 42.3532 84.3147 44.3079 83.1134 45.5092L52.7759 75.8469C52.1944 76.4284 51.4204 76.7486 50.5973 76.7486C49.7742 76.7486 49.0002 76.4284 48.4184 75.8469L33.8862 61.3151C32.6849 60.1138 32.6849 58.1591 33.8857 56.9582C34.4675 56.3767 35.2415 56.0561 36.0649 56.0561C36.8882 56.0561 37.6617 56.3762 38.2433 56.9578L48.8567 67.5714C49.3185 68.0328 49.9442 68.2921 50.597 68.2921C51.2499 68.2921 51.8756 68.033 52.337 67.5714L78.7563 41.1523Z" fill="#D01C69"/>
</g>
<defs>
<clipPath id="clip0_1:375">
<rect width="117" height="117" fill="white"/>
</clipPath>
</defs>
</svg>
