<svg width="155" height="155" viewBox="0 0 155 155" fill="none" xmlns="http://www.w3.org/2000/svg">
<path d="M144.149 70.0416L140.135 53.9861C141.233 53.7529 142.056 52.7794 142.056 51.6129V49.0242C142.056 43.4037 137.483 38.8312 131.863 38.8312H113.58V33.4915C113.58 30.7258 111.331 28.4758 108.565 28.4758H15.3704C12.6046 28.4758 10.3547 30.7258 10.3547 33.4915V77.5C10.3547 78.8402 11.4412 79.9271 12.7817 79.9271C14.122 79.9271 15.2088 78.8405 15.2088 77.5V33.4915C15.2088 33.4022 15.2811 33.3299 15.3704 33.3299H108.564C108.654 33.3299 108.726 33.4022 108.726 33.4915V77.5006C108.726 78.8409 109.813 79.9277 111.153 79.9277C112.493 79.9277 113.58 78.8412 113.58 77.5006V74.7494H142.209C142.212 74.7494 142.214 74.75 142.216 74.75C142.218 74.75 142.22 74.7497 142.222 74.7497C145.745 74.7521 148.737 77.0644 149.764 80.2507H142.218C140.877 80.2507 139.791 81.3372 139.791 82.6777V87.8551C139.791 92.0482 143.202 95.4595 147.395 95.4595H150.146V106.138H143.8C141.715 100.119 135.993 95.7828 129.274 95.7828C122.555 95.7828 116.832 100.119 114.748 106.138H113.58V87.8548C113.58 86.5146 112.493 85.4277 111.153 85.4277C109.812 85.4277 108.726 86.5143 108.726 87.8548V106.137H58.3723C56.2877 100.118 50.5657 95.7822 43.8465 95.7822C37.1273 95.7822 31.4051 100.118 29.3207 106.137H15.3704C15.2811 106.137 15.2088 106.065 15.2088 105.976V100.636H25.7255C27.0657 100.636 28.1525 99.5497 28.1525 98.2092C28.1525 96.8687 27.066 95.7822 25.7255 95.7822H2.42702C1.08682 95.7822 0 96.8687 0 98.2092C0 99.5497 1.08651 100.636 2.42702 100.636H10.355V105.976C10.355 108.741 12.605 110.991 15.3707 110.991H28.4803C28.4797 111.045 28.4761 111.099 28.4761 111.153C28.4761 119.628 35.3715 126.523 43.8465 126.523C52.3216 126.523 59.217 119.628 59.217 111.153C59.217 111.098 59.2133 111.045 59.2127 110.991H113.908C113.907 111.045 113.904 111.099 113.904 111.153C113.904 119.628 120.799 126.523 129.274 126.523C137.749 126.523 144.644 119.628 144.644 111.153C144.644 111.098 144.641 111.045 144.64 110.991H152.573C153.913 110.991 155 109.905 155 108.564V82.6771C155 76.2858 150.284 70.9755 144.149 70.0416ZM113.58 43.6849H131.863C134.807 43.6849 137.203 46.0801 137.203 49.0242V49.1859H113.58V43.6849ZM113.58 69.8957V54.0396H135.146L139.11 69.8957H113.58ZM43.8465 121.67C38.0477 121.67 33.3298 116.953 33.3298 111.154C33.3298 105.354 38.0477 100.637 43.8465 100.637C49.6454 100.637 54.3632 105.354 54.3632 111.154C54.3632 116.953 49.6454 121.67 43.8465 121.67ZM129.275 121.67C123.476 121.67 118.758 116.953 118.758 111.154C118.758 105.354 123.476 100.637 129.275 100.637C135.073 100.637 139.791 105.354 139.791 111.154C139.791 116.953 135.073 121.67 129.275 121.67ZM150.146 90.6054H147.396C145.879 90.6054 144.645 89.3715 144.645 87.8548V85.1041H150.146V90.6054H150.146Z" fill="#CF1862"/>
<path d="M43.8465 106.138C41.0807 106.138 38.8308 108.388 38.8308 111.153C38.8308 113.919 41.0807 116.169 43.8465 116.169C46.6123 116.169 48.8622 113.919 48.8622 111.153C48.8622 108.388 46.6123 106.138 43.8465 106.138Z" fill="#CF1862"/>
<path d="M129.274 106.138C126.509 106.138 124.259 108.388 124.259 111.153C124.259 113.919 126.509 116.169 129.274 116.169C132.04 116.169 134.29 113.919 134.29 111.153C134.29 108.388 132.04 106.138 129.274 106.138Z" fill="#CF1862"/>
<path d="M100.798 95.783H64.5563C63.2161 95.783 62.1292 96.8695 62.1292 98.21C62.1292 99.5505 63.2158 100.637 64.5563 100.637H100.798C102.139 100.637 103.225 99.5505 103.225 98.21C103.225 96.8695 102.139 95.783 100.798 95.783Z" fill="#CF1862"/>
<path d="M38.6691 85.428H7.60434C6.26414 85.428 5.17732 86.5145 5.17732 87.855C5.17732 89.1955 6.26384 90.282 7.60434 90.282H38.6691C40.0093 90.282 41.0961 89.1955 41.0961 87.855C41.0961 86.5145 40.0093 85.428 38.6691 85.428Z" fill="#CF1862"/>
<path d="M84.3937 52.485C83.4461 51.5375 81.9091 51.5375 80.9616 52.4853L59.379 74.0676L48.1515 62.8401C47.2037 61.8922 45.667 61.8922 44.7194 62.8401C43.7716 63.7879 43.7716 65.3243 44.7194 66.2722L57.6631 79.2159C58.1369 79.69 58.7581 79.9267 59.379 79.9267C59.9999 79.9267 60.6215 79.69 61.0949 79.2159L84.3934 55.9174C85.3412 54.9693 85.3412 53.4329 84.3937 52.485Z" fill="#CF1862"/>
</svg>
