<svg width="31" height="31" viewBox="0 0 31 31" fill="none" xmlns="http://www.w3.org/2000/svg">
<g clip-path="url(#clip0_1_278)">
<path d="M16.8228 3.65124L23.1238 12.8163H7.87623L14.1772 3.6513L14.1773 3.65126C14.4103 3.31184 14.3243 2.84788 13.985 2.6142L13.985 2.61416C13.6468 2.38163 13.1823 2.46709 12.948 2.80622L12.9478 2.80641L6.06596 12.8163H0.645854C0.233641 12.8163 -0.1 13.15 -0.1 13.5622C-0.1 13.9744 0.233641 14.308 0.645854 14.308H1.39211L5.31802 26.6467L5.31804 26.6468C5.67436 27.7648 6.70177 28.5164 7.87491 28.5164H23.1252C24.2983 28.5164 25.3258 27.7648 25.682 26.6461L25.682 26.646L29.6079 14.308H30.3542C30.7664 14.308 31.1001 13.9744 31.1001 13.5622C31.1 13.15 30.7664 12.8163 30.3541 12.8163H24.934L18.0523 2.8064C18.0523 2.80638 18.0522 2.80637 18.0522 2.80635C17.819 2.46672 17.355 2.38186 17.0153 2.61393L17.0153 2.61393L17.015 2.61415C16.6757 2.84788 16.5897 3.31177 16.8228 3.6512L16.8228 3.65124ZM24.2603 26.1937C24.2603 26.1937 24.2603 26.1937 24.2603 26.1937C24.1019 26.6909 23.6459 27.0247 23.1251 27.0247H7.87491C7.35405 27.0247 6.89802 26.6909 6.73969 26.1943L2.95758 14.308H28.0425L24.2603 26.1937Z" fill="#D01C69" stroke="#D01C69" stroke-width="0.2"/>
</g>
<defs>
<clipPath id="clip0_1_278">
<rect width="31" height="31" fill="white"/>
</clipPath>
</defs>
</svg>
