<svg width="31" height="28" viewBox="0 0 31 28" fill="none" xmlns="http://www.w3.org/2000/svg">
<path d="M17.0785 1.95523L22.4147 10.0998H9.52498L14.8612 1.95528L14.8613 1.95523C15.0609 1.6501 14.9887 1.23219 14.6949 1.01983L14.6948 1.01978C14.3989 0.806261 13.9933 0.886522 13.7908 1.19413L13.7906 1.19432L7.95583 10.0998H3.36636C3.00375 10.0998 2.71836 10.4064 2.71836 10.7749C2.71836 11.1433 3.00375 11.4499 3.36636 11.4499H3.98741L7.31577 22.4264L7.31578 22.4265C7.6189 23.4245 8.49492 24.1 9.50009 24.1H22.4397C23.4448 24.1 24.3209 23.4244 24.624 22.4259L24.624 22.4258L27.9523 11.4499H28.5734C28.936 11.4499 29.2214 11.1433 29.2214 10.7749C29.2213 10.4064 28.936 10.0998 28.5733 10.0998H23.9839L18.1491 1.19431C18.1491 1.1943 18.1491 1.19428 18.1491 1.19427C17.9474 0.886153 17.5424 0.806509 17.2452 1.01955L17.2452 1.01955L17.2449 1.01978C16.951 1.23219 16.8788 1.65004 17.0785 1.95518L17.0785 1.95523ZM23.388 22.0191C23.388 22.0191 23.388 22.0191 23.388 22.0191C23.2544 22.4592 22.8717 22.75 22.4396 22.75H9.50009C9.06793 22.75 8.68528 22.4591 8.55171 22.0196L5.3466 11.4498H26.5932L23.388 22.0191Z" fill="white" stroke="white" stroke-width="0.2"/>
</svg>
