<svg width="60" height="60" viewBox="0 0 60 60" fill="none" xmlns="http://www.w3.org/2000/svg">
<g clip-path="url(#clip0_1:528)">
<path d="M14.7305 14.7649C14.0837 14.7649 13.5587 15.2899 13.5587 15.9368C13.5587 16.5836 14.0837 17.1086 14.7305 17.1086C15.3774 17.1086 15.9024 16.5836 15.9024 15.9368C15.9024 15.2899 15.3774 14.7649 14.7305 14.7649Z" fill="#D01C69"/>
<path d="M25.2768 36.6777H21.7614V33.1624C21.7614 32.5152 21.2367 31.9905 20.5896 31.9905C19.9424 31.9905 19.4178 32.5152 19.4178 33.1624V36.6777H15.9024C15.2553 36.6777 14.7305 37.2025 14.7305 37.8495C14.7305 38.4965 15.2553 39.0214 15.9024 39.0214H19.4178V42.5368C19.4178 43.1839 19.9426 43.7086 20.5896 43.7086C21.2365 43.7086 21.7614 43.1839 21.7614 42.5368V39.0214H25.2768C25.9239 39.0214 26.4487 38.4966 26.4487 37.8495C26.4487 37.2024 25.924 36.6777 25.2768 36.6777Z" fill="#D01C69"/>
<path d="M56.9035 37.7325C54.3131 33.2459 48.5854 31.7104 44.098 34.3014L39.3381 37.0494V26.8733C39.3381 25.6153 38.922 24.3669 38.1663 23.3579L32.3073 15.5461V12.2196C33.6711 11.7359 34.6509 10.4334 34.6509 8.90566V3.51539C34.6507 1.57699 33.0737 0 31.1353 0H10.0426C8.10419 0 6.52708 1.57699 6.52708 3.51539V8.90578C6.52708 10.4333 7.50688 11.736 8.87071 12.2197V15.5462L3.01122 23.3585C2.25583 24.367 1.83981 25.6153 1.83981 26.8733V49.5679C1.83981 52.7986 4.46821 55.4269 7.69884 55.4269H26.5311C29.1586 59.8311 34.8241 61.3051 39.2652 58.7408L53.4725 50.538C57.9204 47.9695 59.507 42.2436 56.9035 37.7325ZM8.87071 3.51539C8.87071 2.86922 9.39642 2.34352 10.0425 2.34352H31.1352C31.7813 2.34352 32.307 2.86922 32.307 3.51539V8.90578C32.307 9.55195 31.7813 10.0775 31.1352 10.0775H10.0426C9.39641 10.0775 8.87083 9.55184 8.87083 8.90578V3.51539H8.87071ZM4.88669 24.7639L10.98 16.6398C11.1321 16.4371 11.2143 16.1903 11.2143 15.9367V12.4213H29.9634V14.7649H19.4171C18.77 14.7649 18.2452 15.2897 18.2452 15.9368C18.2452 16.5839 18.77 17.1087 19.4171 17.1087H30.5493L36.2907 24.7636C36.6659 25.2646 36.899 25.864 36.9695 26.4832H4.20841C4.27872 25.8639 4.51181 25.2645 4.88669 24.7639ZM7.69895 53.0832C5.76056 53.0832 4.18356 51.5063 4.18356 49.5679V48.3844H25.4736C25.102 49.9037 25.1045 51.5265 25.53 53.0834H7.69895V53.0832ZM26.3927 46.0523H4.18345V28.8266H36.9943V38.4023L29.8905 42.5041C28.4094 43.3597 27.2122 44.5777 26.3927 46.0523ZM38.0935 56.7111C34.7306 58.653 30.4333 57.5046 28.4901 54.1393C26.5377 50.7416 27.7209 46.4638 31.0626 44.5336L37.4232 40.8612L44.4541 53.0387L38.0935 56.7111ZM52.3006 48.5085L46.4838 51.867L39.4528 39.6892L45.2697 36.3311C48.6349 34.3883 52.9306 35.5387 54.8738 38.9041C56.8256 42.2864 55.6387 46.5809 52.3006 48.5085Z" fill="#D01C69"/>
</g>
<defs>
<clipPath id="clip0_1:528">
<rect width="60" height="60" fill="white"/>
</clipPath>
</defs>
</svg>
