<svg width="121" height="122" viewBox="0 0 121 122" fill="none" xmlns="http://www.w3.org/2000/svg">
<g clip-path="url(#clip0_1:389)">
<path d="M37.812 86.4167C36.4205 86.4167 35.2912 85.278 35.2912 83.875V25.4167C35.2912 19.8098 39.8135 15.25 45.3745 15.25C50.9355 15.25 55.4578 19.8098 55.4578 25.4167V78.7917C55.4578 80.1947 54.3285 81.3333 52.937 81.3333C51.5455 81.3333 50.4162 80.1947 50.4162 78.7917V25.4167C50.4162 22.6107 48.1575 20.3333 45.3745 20.3333C42.5915 20.3333 40.3328 22.6107 40.3328 25.4167V83.875C40.3328 85.278 39.2035 86.4167 37.812 86.4167Z" fill="#D01C69"/>
<path d="M68.062 81.3333C66.6705 81.3333 65.5412 80.1947 65.5412 78.7917V55.9167C65.5412 53.1107 63.2825 50.8333 60.4995 50.8333C57.7165 50.8333 55.4578 53.1107 55.4578 55.9167C55.4578 57.3197 54.3285 58.4583 52.937 58.4583C51.5455 58.4583 50.4162 57.3197 50.4162 55.9167C50.4162 50.3098 54.9385 45.75 60.4995 45.75C66.0605 45.75 70.5828 50.3098 70.5828 55.9167V78.7917C70.5828 80.1947 69.4535 81.3333 68.062 81.3333Z" fill="#D01C69"/>
<path d="M83.187 81.3333C81.7955 81.3333 80.6662 80.1946 80.6662 78.7916V60.9999C80.6662 58.1939 78.4075 55.9166 75.6245 55.9166C72.8415 55.9166 70.5828 58.1939 70.5828 60.9999C70.5828 62.4029 69.4535 63.5416 68.062 63.5416C66.6705 63.5416 65.5412 62.4029 65.5412 60.9999C65.5412 55.393 70.0635 50.8333 75.6245 50.8333C81.1855 50.8333 85.7078 55.393 85.7078 60.9999V78.7916C85.7078 80.1946 84.5785 81.3333 83.187 81.3333Z" fill="#D01C69"/>
<path d="M78.1455 122H48.9694C40.4843 122 31.7319 118.274 25.5458 112.032C18.7194 105.144 15.1146 95.3177 15.1297 83.626C15.1348 73.9575 23.1561 66.0834 33.0024 66.0834H37.8122C39.2037 66.0834 40.333 67.2221 40.333 68.6251C40.333 70.0281 39.2037 71.1667 37.8122 71.1667H33.0024C25.934 71.1667 20.1764 76.7635 20.1714 83.6311C20.1613 94.0926 23.1712 102.434 29.1103 108.438C35.3065 114.69 43.4286 116.917 48.9694 116.917H78.1455C87.8759 116.917 95.7913 108.936 95.7913 99.1251V66.0834C95.7913 63.2774 93.5327 61.0001 90.7497 61.0001C87.9667 61.0001 85.708 63.2774 85.708 66.0834C85.708 67.4864 84.5787 68.6251 83.1872 68.6251C81.7957 68.6251 80.6663 67.4864 80.6663 66.0834C80.6663 60.4765 85.1887 55.9167 90.7497 55.9167C96.3106 55.9167 100.833 60.4765 100.833 66.0834V99.1251C100.833 111.737 90.6539 122 78.1455 122Z" fill="#D01C69"/>
<path d="M63.0203 42.2933C62.4607 42.2933 61.891 42.1053 61.4272 41.7189C60.3483 40.8293 60.192 39.2332 61.0743 38.1453C63.9934 34.5362 65.5412 30.134 65.5412 25.4167C65.5412 14.2028 56.4964 5.08333 45.3745 5.08333C34.2526 5.08333 25.2078 14.2028 25.2078 25.4167C25.2078 30.134 26.7556 34.5362 29.6798 38.1453C30.5621 39.2332 30.4058 40.8293 29.3269 41.7189C28.253 42.6136 26.6649 42.4509 25.7826 41.3631C22.1072 36.8338 20.1662 31.3184 20.1662 25.4167C20.1662 11.4019 31.4746 0 45.3745 0C59.2744 0 70.5828 11.4019 70.5828 25.4167C70.5828 31.3184 68.6418 36.8338 64.9715 41.3631C64.4723 41.9782 63.7514 42.2933 63.0203 42.2933Z" fill="#D01C69"/>
</g>
<defs>
<clipPath id="clip0_1:389">
<rect width="121" height="122" fill="white"/>
</clipPath>
</defs>
</svg>
