<svg width="16" height="22" viewBox="0 0 16 22" fill="none" xmlns="http://www.w3.org/2000/svg">
<path d="M12.2912 12.2854C11.507 11.5152 10.5736 10.9451 9.55516 10.5999C10.6459 9.86209 11.3625 8.62727 11.3625 7.23099C11.3625 4.97678 9.4952 3.14282 7.2 3.14282C4.9048 3.14282 3.0375 4.97678 3.0375 7.23099C3.0375 8.62727 3.7541 9.86209 4.84487 10.5999C3.82646 10.9451 2.89305 11.5152 2.10884 12.2854C0.748941 13.621 0 15.3968 0 17.2857H1.125C1.125 13.9957 3.85023 11.3192 7.2 11.3192C10.5498 11.3192 13.275 13.9957 13.275 17.2857H14.4C14.4 15.3968 13.6511 13.621 12.2912 12.2854ZM7.2 10.2143C5.52513 10.2143 4.1625 8.87598 4.1625 7.23099C4.1625 5.586 5.52513 4.24773 7.2 4.24773C8.87487 4.24773 10.2375 5.586 10.2375 7.23099C10.2375 8.87598 8.87487 10.2143 7.2 10.2143Z" fill="#171717"/>
</svg>
