<svg width="23" height="14" viewBox="0 0 23 14" fill="none" xmlns="http://www.w3.org/2000/svg">
<path d="M18.7419 7.91599C18.3956 7.48347 18.4947 7.29104 18.7419 6.90441C18.7464 6.89999 21.6052 2.99311 21.8998 1.66817L21.9016 1.66728C22.0479 1.18444 21.9016 0.82959 21.1938 0.82959H18.8517C18.2555 0.82959 17.9806 1.13413 17.8333 1.47485C17.8333 1.47485 16.6409 4.29776 14.9539 6.12762C14.4095 6.65637 14.1578 6.82585 13.8606 6.82585C13.7142 6.82585 13.4866 6.65637 13.4866 6.17352V1.66728C13.4866 1.08822 13.3197 0.82959 12.8261 0.82959H9.14345C8.76947 0.82959 8.54722 1.0997 8.54722 1.35127C8.54722 1.90032 9.39068 2.02655 9.47815 3.57129V6.92294C9.47815 7.65736 9.34338 7.79241 9.04437 7.79241C8.24822 7.79241 6.31585 4.95803 5.17071 1.71407C4.93954 1.08469 4.71372 0.830472 4.11304 0.830472H1.77009C1.10157 0.830472 0.966797 1.13501 0.966797 1.47573C0.966797 2.07774 1.76295 5.07102 4.66909 9.02556C6.60593 11.7249 9.33356 13.1875 11.8148 13.1875C13.3063 13.1875 13.4884 12.8627 13.4884 12.304C13.4884 9.72467 13.3536 9.48104 14.1007 9.48104C14.447 9.48104 15.0432 9.65052 16.4356 10.9525C18.027 12.4964 18.2885 13.1875 19.1793 13.1875H21.5213C22.189 13.1875 22.5272 12.8627 22.3327 12.2219C21.8873 10.874 18.8776 8.10136 18.7419 7.91599Z" fill="#5EBA49"/>
</svg>
